PathFileType  4	(X/Y/Z) C:\Users\antoi\Documents\MyRepositories\mobilecap\ResultsAnalysis
DataRate	CameraRate	NumFrames	NumMarkers	Units	OrigDataRate	OrigDataStartFrame	OrigNumFrames
100.0	100.0	6	51	mm	100.0	149	1184
Frame#	Time	r_knee			r_shank_antsup			r_ankle			r_calc			r_5meta			r_toe			L_knee			L_shank_antsup			L_ankle			L_calc			L_5meta			L_toe			r_sh2			r_sh3			r_sh4			L_sh2			L_sh3			r_thigh1			r_thigh2			r_thigh3			r_thigh4			r_thigh5			L_thigh1			L_thigh2			L_thigh3			L_thigh4			r.ASIS			r.PSIS			L.ASIS			L.PSIS			C7			R_Shoulder			L_Shoulder			R_Sternum			L_Sternum			R_humerus			R_elbow_med			R_elbow_lat			R_forearm			R_wrist_radius			R_wrist_ulna			L_humerus			L_elbow_med			L_elbow_lat			L_forearm			L_wrist_radius			L_wrist_ulna			R_HJC			L_HJC			R_HJC_reg			L_HJC_reg			
		X1	Y1	Z1	X2	Y2	Z2	X3	Y3	Z3	X4	Y4	Z4	X5	Y5	Z5	X6	Y6	Z6	X7	Y7	Z7	X8	Y8	Z8	X9	Y9	Z9	X10	Y10	Z10	X11	Y11	Z11	X12	Y12	Z12	X13	Y13	Z13	X14	Y14	Z14	X15	Y15	Z15	X16	Y16	Z16	X17	Y17	Z17	X18	Y18	Z18	X19	Y19	Z19	X20	Y20	Z20	X21	Y21	Z21	X22	Y22	Z22	X23	Y23	Z23	X24	Y24	Z24	X25	Y25	Z25	X26	Y26	Z26	X27	Y27	Z27	X28	Y28	Z28	X29	Y29	Z29	X30	Y30	Z30	X31	Y31	Z31	X32	Y32	Z32	X33	Y33	Z33	X34	Y34	Z34	X35	Y35	Z35	X36	Y36	Z36	X37	Y37	Z37	X38	Y38	Z38	X39	Y39	Z39	X40	Y40	Z40	X41	Y41	Z41	X42	Y42	Z42	X43	Y43	Z43	X44	Y44	Z44	X45	Y45	Z45	X46	Y46	Z46	X47	Y47	Z47	X48	Y48	Z48	X49	Y49	Z49	X50	Y50	Z50	X51	Y51	Z51	

149	1.48000000	-144.93132	426.64096	-377.79725	-123.81189	308.67692	-377.45556	-301.16469	93.05961	-410.77620	-349.20613	52.61899	-462.34902	-206.28289	40.33569	-351.59332	-162.90316	57.71900	-388.07750	-127.64289	432.49118	-871.34345	-94.81112	314.03916	-849.46408	-287.58403	93.10238	-855.21405	-333.76469	53.08421	-806.93060	-185.54021	36.88950	-906.04233	-136.58857	54.14985	-860.23948	-180.15491	212.50374	-393.74896	-184.66764	334.91304	-341.65328	-249.60549	246.59084	-367.01629	-148.57911	362.51890	-899.82477	-210.55902	258.66611	-910.99194	-298.79669	685.98017	-431.50442	-219.42124	622.10248	-408.33184	-239.29598	569.92723	-366.36652	-374.04036	609.11772	-398.88627	-285.81672	539.57377	-371.19546	-289.66787	668.79589	-826.21964	-182.72378	595.68472	-847.41890	-369.27859	593.73413	-856.27508	-252.80356	515.20384	-876.66729	-272.01959	692.48201	-499.72666	-405.84633	818.72523	-578.06024	-260.73875	682.94021	-737.75020	-399.93501	819.20678	-688.50693	-171.40555	1170.61586	-619.59233	-114.90675	1135.16882	-470.75329	-99.54059	1132.59050	-763.79889	-64.83205	1083.34598	-595.32060	-64.30461	1080.80941	-637.64257	-97.65579	1029.26325	-395.63121	-172.31873	828.40761	-351.94679	-113.94343	867.55478	-304.06652	-36.90606	903.09000	-392.54000	1.27103	941.17090	-478.35409	28.32917	916.14272	-471.07135	-65.17992	1011.65186	-840.96560	-115.25271	813.18585	-873.23906	-64.35591	845.30703	-927.38702	-0.95398	881.89005	-846.27229	28.08368	927.61080	-732.25132	53.38473	906.75391	-734.07737	-385.31972	675.68836	-527.50601	-373.54776	663.86050	-716.14703	-367.40891	663.90165	-538.13772	-358.98312	664.58435	-695.30267	
150	1.49000000	-145.95044	427.73819	-377.78963	-124.83509	309.57751	-377.37755	-301.19227	92.72155	-411.08405	-349.23379	52.66347	-462.31332	-206.27879	40.16631	-351.52213	-163.04746	57.91336	-387.82713	-128.26183	433.41798	-871.10794	-95.65353	314.83443	-849.27276	-287.65674	93.19449	-855.41322	-333.73575	53.13476	-806.95406	-185.54783	36.89451	-906.09395	-136.63080	54.21775	-860.27277	-180.76186	213.18622	-393.58544	-185.91955	335.59508	-341.48519	-250.30743	247.08474	-366.81142	-149.50573	363.19265	-899.75566	-211.11332	258.91860	-910.79641	-296.04869	689.84033	-430.80558	-218.13440	624.68364	-407.85431	-238.27581	572.49469	-366.40445	-372.50694	613.62140	-399.20873	-285.26054	542.80511	-371.42541	-287.01486	672.38041	-826.37300	-181.04478	597.65590	-847.69234	-367.47566	598.25263	-855.85134	-252.25857	518.07589	-876.37117	-270.01149	699.23683	-499.29801	-403.17441	824.48493	-576.67387	-259.34859	689.56051	-736.87248	-398.34834	825.18016	-688.43706	-173.46254	1179.24877	-619.47448	-117.08986	1144.13879	-470.72605	-101.74747	1141.85429	-764.01667	-66.14374	1092.95794	-595.38158	-65.65656	1090.43583	-637.61841	-100.07668	1037.83509	-395.44089	-177.33458	837.88104	-351.97470	-118.44895	876.11692	-304.04508	-40.85552	910.70314	-392.66776	-2.34981	948.56066	-478.39194	24.34087	923.04163	-471.33499	-68.51643	1020.15508	-841.39261	-121.63652	822.56180	-873.81923	-70.33397	853.74686	-927.86304	-6.17607	889.37252	-846.83839	23.74372	934.90028	-733.24595	48.68585	913.78080	-734.86172	-383.00846	682.00377	-526.58226	-371.77655	669.98560	-715.24378	-364.62814	670.46322	-536.63514	-357.84229	671.43725	-693.56747	
151	1.50000000	-147.04594	428.86737	-377.81954	-125.92012	310.54254	-377.22303	-301.39709	92.78068	-410.90056	-349.23702	52.70700	-462.34745	-206.30617	40.04693	-351.45560	-163.11762	58.01133	-387.68785	-128.98131	434.34557	-870.94155	-96.51560	315.70097	-849.07777	-287.72108	93.28889	-855.62581	-333.72001	53.16943	-806.95141	-185.56418	36.90546	-906.17660	-136.64362	54.30960	-860.33640	-181.34480	213.73390	-393.50483	-187.24549	336.32027	-341.36439	-251.04084	247.52474	-366.66906	-150.44135	363.97459	-899.63705	-211.74648	259.30336	-910.59234	-293.26979	693.46041	-430.50873	-216.20535	626.34360	-407.92153	-237.27423	575.10431	-366.27769	-370.92019	618.19929	-399.53447	-284.65882	546.02308	-371.69904	-284.29098	675.91635	-826.40008	-179.46569	599.67723	-847.90919	-365.73451	602.71531	-855.33636	-251.80324	520.75587	-875.74790	-267.90193	706.12780	-499.09400	-400.84517	830.39979	-575.82994	-257.96127	696.49017	-737.37193	-396.58527	831.07307	-688.55860	-175.22411	1187.82307	-619.71136	-118.86092	1152.96129	-471.06631	-104.01840	1151.28984	-764.32459	-67.52063	1102.68456	-595.27233	-67.17610	1100.13416	-637.45250	-102.60341	1046.59905	-395.33617	-182.33869	847.40915	-352.33704	-123.00544	884.82141	-304.09803	-44.85251	918.34247	-392.87303	-6.02999	956.09269	-478.32706	20.30974	930.05672	-471.65738	-72.02191	1028.85744	-841.98890	-127.89666	832.45266	-874.53852	-76.44711	862.35377	-928.37303	-11.58040	897.00567	-847.26440	19.30762	942.34723	-734.05788	43.80553	920.68177	-735.44544	-380.56189	688.28214	-526.29869	-369.96296	676.29060	-714.99875	-362.37612	676.94443	-536.00430	-356.43275	677.88490	-693.42009	
152	1.51000000	-148.15632	429.98913	-377.92933	-127.08072	311.50734	-377.12740	-301.61318	92.85643	-410.73188	-349.21698	52.71576	-462.38615	-206.34649	39.98908	-351.38696	-163.14163	57.98237	-387.63125	-129.83863	435.21908	-870.64143	-97.40929	316.61520	-848.94569	-287.75492	93.34690	-855.73258	-333.71523	53.19501	-806.94614	-185.57387	36.91626	-906.22817	-136.65131	54.40390	-860.40755	-182.08540	214.30476	-393.30728	-188.57212	337.06425	-341.43919	-251.82618	247.83891	-366.66669	-151.49579	364.75887	-899.28695	-212.40050	259.97141	-910.48677	-290.44292	696.97917	-430.33158	-214.41690	627.68018	-408.07901	-236.36349	577.73821	-365.93253	-369.20539	622.81161	-399.77594	-284.10684	549.32572	-371.76302	-281.54668	679.45022	-826.25678	-177.83848	601.67461	-848.16322	-364.07746	607.19379	-854.83727	-251.29342	523.47234	-875.23800	-265.58893	712.97232	-499.09889	-399.14575	836.47665	-575.76395	-255.95746	703.30571	-737.83777	-394.82342	836.89555	-688.71871	-176.88200	1196.43666	-620.09056	-120.50245	1161.72053	-471.57486	-106.30498	1160.87908	-764.60686	-68.97758	1112.52935	-595.12299	-68.80054	1109.98161	-637.36530	-105.21438	1055.46323	-395.23192	-187.35135	856.98352	-352.83821	-127.56547	893.54094	-304.41205	-48.93433	925.98691	-393.21161	-9.65723	963.60238	-478.32324	16.23026	937.12381	-471.99989	-75.58053	1037.71796	-842.60329	-133.91823	842.47293	-874.47902	-82.68023	871.02858	-928.71889	-17.05165	904.84427	-847.76309	14.76767	949.69680	-734.50152	38.83867	927.53158	-735.85041	-378.10170	694.47890	-526.33339	-367.70376	682.44773	-715.04259	-360.18644	683.35881	-536.08582	-354.15320	683.94389	-693.79473	
153	1.52000000	-149.28830	431.08397	-378.12667	-128.29156	312.51250	-377.14407	-301.76156	92.89658	-410.67993	-349.21080	52.68034	-462.31498	-206.35094	39.93881	-351.34530	-163.19686	57.98655	-387.49030	-130.78720	436.06619	-870.23269	-98.38464	317.51216	-848.75994	-287.78833	93.36386	-855.73695	-333.71115	53.23907	-806.94430	-185.57752	36.92503	-906.23185	-136.68135	54.46083	-860.43863	-182.86929	214.94416	-393.11320	-189.86580	337.81387	-341.68176	-252.70766	248.06303	-366.92872	-152.65799	365.46854	-898.89671	-213.06783	260.67178	-910.41648	-287.54112	700.52768	-430.13343	-213.09405	629.57012	-407.78175	-235.44673	580.30342	-365.66664	-367.41846	627.31640	-400.14810	-283.54972	552.57933	-372.00855	-278.85295	682.95373	-826.14163	-176.10544	603.59628	-848.58491	-362.36894	611.72663	-854.36670	-250.65885	526.40215	-875.14867	-263.17902	719.77443	-499.11401	-397.61536	842.57227	-575.73505	-253.33195	710.06067	-737.68641	-393.19635	842.80484	-688.78145	-178.86550	1205.24522	-620.17166	-122.65537	1170.74380	-471.70529	-108.59867	1170.54980	-764.70792	-70.51106	1122.49620	-595.13159	-70.39220	1119.98926	-637.51361	-107.88178	1064.38295	-395.09032	-192.50509	866.76728	-353.06839	-132.14852	902.28776	-304.83609	-53.03047	933.72506	-393.56120	-13.19471	971.09949	-478.51265	12.14053	944.17229	-472.30584	-79.13119	1046.63985	-843.16469	-140.03738	852.16543	-873.72845	-89.01921	879.81891	-928.94762	-22.53998	912.70290	-848.38887	10.15964	956.87204	-734.68865	33.83279	934.48921	-736.41078	-375.59727	700.60509	-526.29063	-365.03064	688.54249	-714.98830	-357.59146	689.78364	-536.11011	-351.42903	690.10778	-693.71085	
154	1.53000000	-150.49900	432.15125	-378.43023	-129.50947	313.58815	-377.25402	-301.89031	93.01684	-410.55808	-349.22843	52.65038	-462.18500	-206.31819	39.86281	-351.33158	-163.24448	57.99332	-387.36208	-131.70234	436.94027	-869.92603	-99.43302	318.41543	-848.55043	-287.84264	93.37103	-855.75341	-333.69612	53.30855	-806.95924	-185.57697	36.92701	-906.24071	-136.70139	54.47784	-860.44571	-183.47891	215.57617	-393.17113	-191.17324	338.58927	-341.95397	-253.67206	248.34212	-367.34030	-153.86001	366.26806	-898.64004	-213.81315	261.16464	-910.29039	-284.51946	703.97804	-430.12389	-211.60679	631.98305	-407.29049	-234.43788	582.80629	-365.55778	-365.61826	631.74933	-400.61810	-282.88947	555.68145	-372.56913	-276.08642	686.38618	-826.10859	-174.35098	605.43158	-849.13599	-360.49109	616.30995	-853.92090	-250.08830	529.26165	-874.95008	-260.73210	726.51275	-499.07566	-395.92053	848.69453	-575.49058	-250.66879	717.03202	-737.65930	-391.55682	848.88507	-688.79193	-181.47544	1214.36789	-619.86408	-125.72468	1180.21671	-471.29660	-110.96632	1180.27386	-764.81272	-72.18023	1132.51500	-595.28673	-71.96001	1130.04586	-637.70725	-110.60629	1073.27831	-395.05305	-197.69064	876.66508	-353.23247	-136.76364	911.16476	-305.11753	-57.07438	941.65937	-393.73510	-16.72997	978.65850	-478.82072	8.09909	951.25487	-472.54077	-82.72463	1055.59817	-843.72903	-146.24277	861.47992	-873.32310	-95.40742	888.78171	-929.30320	-28.21169	920.33082	-848.89867	5.50993	964.00363	-734.85020	28.73569	941.54514	-737.21038	-373.02409	706.71594	-526.28029	-362.33358	694.84221	-714.98279	-354.89066	696.21716	-536.00226	-348.82019	696.48200	-693.61460	
